<svg width="42" height="41" viewBox="0 0 42 41" fill="none" xmlns="http://www.w3.org/2000/svg">
<g filter="url(#filter0_i_229_1469)">
<path d="M18.679 15.7537C18.5464 14.5132 17.9877 13.5473 17.0028 12.856C16.0275 12.1647 14.7585 11.8191 13.196 11.8191C12.0975 11.8191 11.1553 11.9848 10.3693 12.3162C9.58333 12.6477 8.98201 13.0975 8.56534 13.6657C8.14867 14.2338 7.93561 14.8825 7.92614 15.6117C7.92614 16.2177 8.06345 16.7433 8.33807 17.1884C8.62216 17.6335 9.00568 18.0122 9.48864 18.3247C9.97159 18.6278 10.5066 18.8835 11.0938 19.0918C11.6809 19.3001 12.2727 19.4753 12.8693 19.6174L15.5966 20.2992C16.6951 20.5549 17.7509 20.9005 18.7642 21.3361C19.7869 21.7717 20.7008 22.321 21.5057 22.9838C22.3201 23.6467 22.964 24.4469 23.4375 25.3844C23.911 26.3219 24.1477 27.4204 24.1477 28.6799C24.1477 30.3844 23.7121 31.8854 22.8409 33.1827C21.9697 34.4706 20.7102 35.4791 19.0625 36.2083C17.4242 36.928 15.4403 37.2878 13.1108 37.2878C10.8475 37.2878 8.88258 36.9374 7.21591 36.2367C5.55871 35.5359 4.26136 34.5132 3.32386 33.1685C2.39583 31.8238 1.89394 30.1855 1.81818 28.2537H7.00284C7.0786 29.267 7.3911 30.1098 7.94034 30.7821C8.48958 31.4545 9.20455 31.9564 10.0852 32.2878C10.9754 32.6193 11.9697 32.785 13.0682 32.785C14.214 32.785 15.2178 32.6145 16.0795 32.2736C16.9508 31.9232 17.6326 31.4403 18.125 30.8247C18.6174 30.1997 18.8684 29.4706 18.8778 28.6372C18.8684 27.8797 18.6458 27.2547 18.2102 26.7622C17.7746 26.2604 17.1638 25.8437 16.3778 25.5122C15.6013 25.1713 14.6922 24.8683 13.6506 24.6032L10.3409 23.7509C7.94508 23.1354 6.05114 22.2026 4.65909 20.9526C3.27652 19.6931 2.58523 18.0217 2.58523 15.9384C2.58523 14.2244 3.04924 12.7234 3.97727 11.4355C4.91477 10.1477 6.18845 9.14861 7.7983 8.43838C9.40814 7.71868 11.2311 7.35884 13.267 7.35884C15.3314 7.35884 17.1402 7.71868 18.6932 8.43838C20.2557 9.14861 21.482 10.1382 22.3722 11.4071C23.2623 12.6666 23.7216 14.1155 23.75 15.7537H18.679Z" fill="#F08080"/>
</g>
<g filter="url(#filter1_i_229_1469)">
<path d="M18.8693 29.8475V0.756563H29.7784C32.0133 0.756563 33.8883 1.17323 35.4034 2.00656C36.928 2.8399 38.0786 3.98573 38.8551 5.44406C39.6411 6.89293 40.0341 8.54065 40.0341 10.3872C40.0341 12.2528 39.6411 13.91 38.8551 15.3588C38.0691 16.8077 36.9091 17.9488 35.375 18.7821C33.8409 19.606 31.9517 20.0179 29.7074 20.0179H22.4773V15.6855H28.9972C30.304 15.6855 31.3741 15.4583 32.2074 15.0037C33.0407 14.5492 33.6563 13.9242 34.054 13.1287C34.4612 12.3333 34.6648 11.4194 34.6648 10.3872C34.6648 9.35505 34.4612 8.44596 34.054 7.65997C33.6563 6.87399 33.036 6.26319 32.1932 5.82759C31.3598 5.38251 30.285 5.15997 28.9688 5.15997H24.1392V29.8475H18.8693Z" fill="#F08080"/>
</g>
<g filter="url(#filter2_i_229_1469)">
<path d="M18.679 15.7537C18.5464 14.5132 17.9877 13.5473 17.0028 12.856C16.0275 12.1647 14.7585 11.8191 13.196 11.8191C12.0975 11.8191 11.1553 11.9848 10.3693 12.3162C9.58333 12.6477 8.98201 13.0975 8.56534 13.6657C8.14867 14.2338 7.93561 14.8825 7.92614 15.6117C7.92614 16.2177 8.06345 16.7433 8.33807 17.1884C8.62216 17.6335 9.00568 18.0122 9.48864 18.3247C9.97159 18.6278 10.5066 18.8835 11.0938 19.0918C11.6809 19.3001 12.2727 19.4753 12.8693 19.6174L15.5966 20.2992C16.6951 20.5549 17.7509 20.9005 18.7642 21.3361C19.7869 21.7717 20.7008 22.321 21.5057 22.9838C22.3201 23.6467 22.964 24.4469 23.4375 25.3844C23.911 26.3219 24.1477 27.4204 24.1477 28.6799C24.1477 30.3844 23.7121 31.8854 22.8409 33.1827C21.9697 34.4706 20.7102 35.4791 19.0625 36.2083C17.4242 36.928 15.4403 37.2878 13.1108 37.2878C10.8475 37.2878 8.88258 36.9374 7.21591 36.2367C5.55871 35.5359 4.26136 34.5132 3.32386 33.1685C2.39583 31.8238 1.89394 30.1855 1.81818 28.2537H7.00284C7.0786 29.267 7.3911 30.1098 7.94034 30.7821C8.48958 31.4545 9.20455 31.9564 10.0852 32.2878C10.9754 32.6193 11.9697 32.785 13.0682 32.785C14.214 32.785 15.2178 32.6145 16.0795 32.2736C16.9508 31.9232 17.6326 31.4403 18.125 30.8247C18.6174 30.1997 18.8684 29.4706 18.8778 28.6372C18.8684 27.8797 18.6458 27.2547 18.2102 26.7622C17.7746 26.2604 17.1638 25.8437 16.3778 25.5122C15.6013 25.1713 14.6922 24.8683 13.6506 24.6032L10.3409 23.7509C7.94508 23.1354 6.05114 22.2026 4.65909 20.9526C3.27652 19.6931 2.58523 18.0217 2.58523 15.9384C2.58523 14.2244 3.04924 12.7234 3.97727 11.4355C4.91477 10.1477 6.18845 9.14861 7.7983 8.43838C9.40814 7.71868 11.2311 7.35884 13.267 7.35884C15.3314 7.35884 17.1402 7.71868 18.6932 8.43838C20.2557 9.14861 21.482 10.1382 22.3722 11.4071C23.2623 12.6666 23.7216 14.1155 23.75 15.7537H18.679Z" fill="#F08080"/>
</g>
<g filter="url(#filter3_i_229_1469)">
<path d="M18.8693 29.8475V0.756563H29.7784C32.0133 0.756563 33.8883 1.17323 35.4034 2.00656C36.928 2.8399 38.0786 3.98573 38.8551 5.44406C39.6411 6.89293 40.0341 8.54065 40.0341 10.3872C40.0341 12.2528 39.6411 13.91 38.8551 15.3588C38.0691 16.8077 36.9091 17.9488 35.375 18.7821C33.8409 19.606 31.9517 20.0179 29.7074 20.0179H22.4773V15.6855H28.9972C30.304 15.6855 31.3741 15.4583 32.2074 15.0037C33.0407 14.5492 33.6563 13.9242 34.054 13.1287C34.4612 12.3333 34.6648 11.4194 34.6648 10.3872C34.6648 9.35505 34.4612 8.44596 34.054 7.65997C33.6563 6.87399 33.036 6.26319 32.1932 5.82759C31.3598 5.38251 30.285 5.15997 28.9688 5.15997H24.1392V29.8475H18.8693Z" fill="#F08080"/>
</g>
<g filter="url(#filter4_i_229_1469)">
<path d="M38.8554 21.2634C37.8897 20.4814 36.4729 20.6303 35.6908 21.5961L31.6003 26.6475C30.8182 27.6132 30.9672 29.03 31.9329 29.812C32.8986 30.5941 34.3154 30.4452 35.0974 29.4794L39.188 24.428C39.97 23.4623 39.8211 22.0455 38.8554 21.2634Z" fill="#F08080"/>
</g>
<g filter="url(#filter5_i_229_1469)">
<path d="M34.3572 39.0054C35.262 38.3718 35.4819 37.1247 34.8483 36.2199L31.4069 31.305C30.7733 30.4002 29.5262 30.1803 28.6214 30.8138C27.7166 31.4474 27.4967 32.6945 28.1303 33.5993L31.5717 38.5142C32.2053 39.419 33.4524 39.6389 34.3572 39.0054Z" fill="#F08080"/>
</g>
<defs>
<filter id="filter0_i_229_1469" x="1.81818" y="7.35883" width="22.3295" height="30.429" filterUnits="userSpaceOnUse" color-interpolation-filters="sRGB">
<feFlood flood-opacity="0" result="BackgroundImageFix"/>
<feBlend mode="normal" in="SourceGraphic" in2="BackgroundImageFix" result="shape"/>
<feColorMatrix in="SourceAlpha" type="matrix" values="0 0 0 0 0 0 0 0 0 0 0 0 0 0 0 0 0 0 127 0" result="hardAlpha"/>
<feOffset dy="4"/>
<feGaussianBlur stdDeviation="0.25"/>
<feComposite in2="hardAlpha" operator="arithmetic" k2="-1" k3="1"/>
<feColorMatrix type="matrix" values="0 0 0 0 1 0 0 0 0 1 0 0 0 0 1 0 0 0 0.25 0"/>
<feBlend mode="normal" in2="shape" result="effect1_innerShadow_229_1469"/>
</filter>
<filter id="filter1_i_229_1469" x="18.8693" y="0.756592" width="21.1648" height="29.5909" filterUnits="userSpaceOnUse" color-interpolation-filters="sRGB">
<feFlood flood-opacity="0" result="BackgroundImageFix"/>
<feBlend mode="normal" in="SourceGraphic" in2="BackgroundImageFix" result="shape"/>
<feColorMatrix in="SourceAlpha" type="matrix" values="0 0 0 0 0 0 0 0 0 0 0 0 0 0 0 0 0 0 127 0" result="hardAlpha"/>
<feOffset dy="4"/>
<feGaussianBlur stdDeviation="0.25"/>
<feComposite in2="hardAlpha" operator="arithmetic" k2="-1" k3="1"/>
<feColorMatrix type="matrix" values="0 0 0 0 1 0 0 0 0 1 0 0 0 0 1 0 0 0 0.25 0"/>
<feBlend mode="normal" in2="shape" result="effect1_innerShadow_229_1469"/>
</filter>
<filter id="filter2_i_229_1469" x="1.81818" y="7.35883" width="22.3295" height="30.429" filterUnits="userSpaceOnUse" color-interpolation-filters="sRGB">
<feFlood flood-opacity="0" result="BackgroundImageFix"/>
<feBlend mode="normal" in="SourceGraphic" in2="BackgroundImageFix" result="shape"/>
<feColorMatrix in="SourceAlpha" type="matrix" values="0 0 0 0 0 0 0 0 0 0 0 0 0 0 0 0 0 0 127 0" result="hardAlpha"/>
<feOffset dy="4"/>
<feGaussianBlur stdDeviation="0.25"/>
<feComposite in2="hardAlpha" operator="arithmetic" k2="-1" k3="1"/>
<feColorMatrix type="matrix" values="0 0 0 0 1 0 0 0 0 1 0 0 0 0 1 0 0 0 0.25 0"/>
<feBlend mode="normal" in2="shape" result="effect1_innerShadow_229_1469"/>
</filter>
<filter id="filter3_i_229_1469" x="18.8693" y="0.756592" width="21.1648" height="29.5909" filterUnits="userSpaceOnUse" color-interpolation-filters="sRGB">
<feFlood flood-opacity="0" result="BackgroundImageFix"/>
<feBlend mode="normal" in="SourceGraphic" in2="BackgroundImageFix" result="shape"/>
<feColorMatrix in="SourceAlpha" type="matrix" values="0 0 0 0 0 0 0 0 0 0 0 0 0 0 0 0 0 0 127 0" result="hardAlpha"/>
<feOffset dy="4"/>
<feGaussianBlur stdDeviation="0.25"/>
<feComposite in2="hardAlpha" operator="arithmetic" k2="-1" k3="1"/>
<feColorMatrix type="matrix" values="0 0 0 0 1 0 0 0 0 1 0 0 0 0 1 0 0 0 0.25 0"/>
<feBlend mode="normal" in2="shape" result="effect1_innerShadow_229_1469"/>
</filter>
<filter id="filter4_i_229_1469" x="31.0988" y="20.762" width="8.59076" height="10.0516" filterUnits="userSpaceOnUse" color-interpolation-filters="sRGB">
<feFlood flood-opacity="0" result="BackgroundImageFix"/>
<feBlend mode="normal" in="SourceGraphic" in2="BackgroundImageFix" result="shape"/>
<feColorMatrix in="SourceAlpha" type="matrix" values="0 0 0 0 0 0 0 0 0 0 0 0 0 0 0 0 0 0 127 0" result="hardAlpha"/>
<feOffset dy="4"/>
<feGaussianBlur stdDeviation="0.25"/>
<feComposite in2="hardAlpha" operator="arithmetic" k2="-1" k3="1"/>
<feColorMatrix type="matrix" values="0 0 0 0 1 0 0 0 0 1 0 0 0 0 1 0 0 0 0.25 0"/>
<feBlend mode="normal" in2="shape" result="effect1_innerShadow_229_1469"/>
</filter>
<filter id="filter5_i_229_1469" x="27.7684" y="30.452" width="7.44183" height="9.41528" filterUnits="userSpaceOnUse" color-interpolation-filters="sRGB">
<feFlood flood-opacity="0" result="BackgroundImageFix"/>
<feBlend mode="normal" in="SourceGraphic" in2="BackgroundImageFix" result="shape"/>
<feColorMatrix in="SourceAlpha" type="matrix" values="0 0 0 0 0 0 0 0 0 0 0 0 0 0 0 0 0 0 127 0" result="hardAlpha"/>
<feOffset dy="4"/>
<feGaussianBlur stdDeviation="0.25"/>
<feComposite in2="hardAlpha" operator="arithmetic" k2="-1" k3="1"/>
<feColorMatrix type="matrix" values="0 0 0 0 1 0 0 0 0 1 0 0 0 0 1 0 0 0 0.25 0"/>
<feBlend mode="normal" in2="shape" result="effect1_innerShadow_229_1469"/>
</filter>
</defs>
</svg>
